<svg width="70" height="70" viewBox="0 0 70 70" fill="none" xmlns="http://www.w3.org/2000/svg">
<path d="M11.0537 61.4495L44.8656 47.5425C45.7939 47.161 46.1111 46.0304 45.5492 45.0897C43.9769 42.4374 40.667 37.2735 36.4684 33.0749C32.4092 29.0157 27.4709 25.9054 24.9006 24.4179C23.9627 23.871 22.8498 24.1991 22.4684 25.1179L8.55722 58.953C7.95293 60.4214 9.58535 62.0524 11.0537 61.4495Z" fill="#ED3F03"/>
<path d="M25.1139 55.6676L17.217 58.9133L11.0934 52.7897L14.3391 44.8928L25.1139 55.6676Z" fill="#FCB424"/>
<path d="M39.4215 49.7805L31.526 53.029L16.9777 38.4807L20.2262 30.5852L39.4215 49.7805Z" fill="#FCB424"/>
<path d="M12.1953 58.9462L11.5473 61.362C11.5049 61.52 11.505 61.6864 11.5474 61.8443C11.5899 62.0023 11.6733 62.1462 11.7893 62.2616L13.557 64.0294C13.6725 64.1446 13.7557 64.2881 13.7983 64.4456C13.8409 64.603 13.8415 64.7689 13.8 64.9266C13.7585 65.0844 13.6763 65.2284 13.5617 65.3445C13.4471 65.4606 13.3041 65.5445 13.1469 65.588L10.731 66.2347C10.5731 66.2771 10.429 66.3603 10.3133 66.4759C10.1977 66.5916 10.1145 66.7357 10.0721 66.8937L9.41855 69.3163C9.37507 69.4735 9.29111 69.6166 9.17505 69.7312C9.059 69.8458 8.91491 69.928 8.75717 69.9695C8.59943 70.011 8.43356 70.0104 8.27612 69.9677C8.11869 69.9251 7.97519 69.8419 7.85996 69.7265L6.09082 67.9587C5.97572 67.8436 5.83247 67.7607 5.67534 67.7182C5.51822 67.6758 5.3527 67.6753 5.19531 67.7167L2.77675 68.3593C2.61964 68.3999 2.45464 68.3988 2.29807 68.3561C2.1415 68.3134 1.99879 68.2306 1.88404 68.1159C1.76929 68.0011 1.68647 67.8584 1.64378 67.7018C1.60109 67.5453 1.6 67.3803 1.64062 67.2232L2.2832 64.8046C2.32542 64.6466 2.32529 64.4803 2.28281 64.3224C2.24033 64.1644 2.157 64.0205 2.04121 63.905L0.273432 62.14C0.158041 62.0243 0.0750804 61.8803 0.0328628 61.7224C-0.00935478 61.5646 -0.00934688 61.3984 0.0328857 61.2405C0.0751183 61.0827 0.158093 60.9387 0.273495 60.823C0.388898 60.7073 0.532676 60.624 0.690425 60.5814L3.10624 59.9347C3.26424 59.8923 3.4083 59.8091 3.52397 59.6934C3.63964 59.5778 3.72284 59.4337 3.76523 59.2757L4.41191 56.8599C4.45453 56.7021 4.53786 56.5583 4.65354 56.4429C4.76923 56.3275 4.91321 56.2446 5.07107 56.2023C5.22892 56.1601 5.3951 56.1601 5.55296 56.2023C5.71081 56.2445 5.8548 56.3275 5.9705 56.4429L7.73828 58.2107C7.85368 58.3266 7.99763 58.41 8.15558 58.4525C8.31354 58.4949 8.4799 58.495 8.63789 58.4526L11.0537 57.8046C11.2117 57.7624 11.3781 57.7624 11.5361 57.8048C11.6941 57.8472 11.8382 57.9304 11.9538 58.0461C12.0695 58.1617 12.1527 58.3058 12.1951 58.4638C12.2375 58.6218 12.2376 58.7882 12.1953 58.9462Z" fill="#07B7EE"/>
<path d="M37.7877 31.9661C37.7172 31.8938 37.6758 31.798 37.6715 31.6971C37.6672 31.5962 37.7003 31.4972 37.7644 31.4192L50.8894 15.5188L54.2391 18.867L38.3387 31.992C38.26 32.057 38.16 32.0903 38.0582 32.0855C37.9563 32.0807 37.8599 32.0381 37.7877 31.9661Z" fill="#07B7EE"/>
<path d="M40.3061 34.14C42.2488 32.4392 51.2162 25.0919 59.8568 26.2459L59.9389 31.5396C59.9389 31.5396 52.9252 28.2584 40.8652 34.9302C40.7733 34.9813 40.6671 35.0009 40.563 34.9861C40.4588 34.9713 40.3624 34.9229 40.2883 34.8482C40.241 34.8016 40.2037 34.7458 40.1789 34.6842C40.154 34.6226 40.142 34.5566 40.1437 34.4902C40.1453 34.4239 40.1606 34.3585 40.1885 34.2983C40.2165 34.238 40.2565 34.1842 40.3061 34.14Z" fill="#ED3F03"/>
<path d="M35.6139 29.4478C37.3147 27.505 44.6619 18.5376 43.508 9.89697L38.2143 9.81494C38.2143 9.81494 41.4955 16.8286 34.8236 28.8886C34.7726 28.9805 34.7529 29.0867 34.7677 29.1908C34.7826 29.295 34.831 29.3914 34.9057 29.4655C34.9523 29.5128 35.0081 29.5501 35.0697 29.575C35.1312 29.5998 35.1972 29.6118 35.2636 29.6101C35.33 29.6085 35.3953 29.5932 35.4556 29.5653C35.5158 29.5373 35.5697 29.4973 35.6139 29.4478Z" fill="#FCB424"/>
<path d="M59.5287 10.3003C58.2982 12.2868 58.3119 14.2405 59.5287 16.2339C59.535 16.2439 59.5377 16.2558 59.5363 16.2676C59.5349 16.2794 59.5296 16.2903 59.5211 16.2986C59.5126 16.3069 59.5016 16.3121 59.4898 16.3132C59.478 16.3144 59.4662 16.3115 59.4562 16.305C57.4629 15.0554 55.501 15.0745 53.509 16.305C53.4991 16.3108 53.4875 16.3132 53.4761 16.3117C53.4647 16.3102 53.4541 16.305 53.446 16.2969C53.4378 16.2888 53.4326 16.2782 53.4312 16.2668C53.4297 16.2554 53.4321 16.2438 53.4379 16.2339C54.6889 14.2405 54.6752 12.2868 53.4488 10.2853C53.443 10.2753 53.4407 10.2638 53.4421 10.2524C53.4436 10.241 53.4488 10.2304 53.4569 10.2222C53.465 10.2141 53.4756 10.2089 53.487 10.2075C53.4984 10.206 53.51 10.2084 53.5199 10.2142C55.5037 11.4556 57.4561 11.4528 59.4521 10.2292C59.4616 10.2191 59.4746 10.2131 59.4885 10.2125C59.5023 10.212 59.5158 10.217 59.526 10.2265C59.5361 10.2359 59.5421 10.249 59.5426 10.2628C59.5431 10.2767 59.5381 10.2901 59.5287 10.3003Z" fill="#07B7EE"/>
<path d="M69.9535 30.3666C67.6293 30.6018 66.0871 31.8008 65.249 33.9828C65.2447 33.9936 65.2369 34.0025 65.2269 34.0083C65.2169 34.0141 65.2053 34.0164 65.1938 34.0149C65.1823 34.0133 65.1717 34.0079 65.1637 33.9997C65.1556 33.9914 65.1505 33.9807 65.1492 33.9692C64.9277 31.6272 63.7109 30.085 61.5234 29.2578C61.5127 29.2535 61.5037 29.2457 61.4979 29.2357C61.4921 29.2257 61.4898 29.2141 61.4914 29.2026C61.493 29.1912 61.4983 29.1806 61.5066 29.1725C61.5149 29.1644 61.5256 29.1593 61.5371 29.158C63.8805 28.9379 65.4227 27.7362 66.2635 25.5459C66.2678 25.5352 66.2756 25.5262 66.2856 25.5204C66.2956 25.5146 66.3072 25.5123 66.3187 25.5139C66.3302 25.5155 66.3408 25.5208 66.3488 25.5291C66.3569 25.5374 66.362 25.5481 66.3633 25.5596C66.5861 27.8838 67.777 29.4356 69.9631 30.2737C69.9714 30.2788 69.978 30.2862 69.9823 30.2949C69.9866 30.3037 69.9884 30.3134 69.9874 30.3231C69.9864 30.3328 69.9827 30.3421 69.9767 30.3498C69.9707 30.3574 69.9627 30.3633 69.9535 30.3666Z" fill="#ED3F03"/>
<path d="M39.6334 0.0463368C39.3982 2.37056 38.1992 3.91274 36.0172 4.75083C36.0065 4.75516 35.9975 4.76294 35.9917 4.77294C35.9859 4.78295 35.9836 4.7946 35.9852 4.80605C35.9867 4.81751 35.9921 4.82811 36.0004 4.83619C36.0086 4.84426 36.0194 4.84935 36.0309 4.85063C38.3728 5.07212 39.9219 6.28892 40.749 8.47642C40.7533 8.48714 40.7611 8.49611 40.7711 8.50191C40.7811 8.50771 40.7928 8.51 40.8042 8.50844C40.8157 8.50687 40.8263 8.50152 40.8344 8.49324C40.8425 8.48497 40.8475 8.47423 40.8488 8.46274C41.0689 6.11938 42.2707 4.5772 44.4609 3.73638C44.4717 3.73205 44.4806 3.72426 44.4864 3.71426C44.4922 3.70426 44.4945 3.69261 44.493 3.68115C44.4914 3.66969 44.486 3.65909 44.4778 3.65102C44.4695 3.64294 44.4588 3.63786 44.4473 3.63657C42.123 3.41372 40.5713 2.2229 39.7332 0.0367665C39.7292 0.0260995 39.7217 0.0170546 39.7121 0.0110267C39.7024 0.0049988 39.691 0.00232269 39.6796 0.00341111C39.6683 0.00449953 39.6576 0.00929203 39.6493 0.0170495C39.6409 0.0248069 39.6353 0.0350984 39.6334 0.0463368Z" fill="#FCB424"/>
<path d="M56.6125 40.7599L56.2967 41.9357C56.2805 41.9976 56.2806 42.0627 56.2972 42.1245C56.3137 42.1864 56.3461 42.2428 56.391 42.2884L57.2523 43.1484C57.2974 43.1937 57.3298 43.2501 57.3462 43.3119C57.3626 43.3737 57.3625 43.4387 57.3459 43.5005C57.3293 43.5622 57.2967 43.6185 57.2515 43.6637C57.2063 43.709 57.15 43.7415 57.0883 43.7581L55.9125 44.0726C55.8508 44.0895 55.7947 44.1222 55.7496 44.1676C55.7045 44.2129 55.672 44.2692 55.6555 44.331L55.341 45.5054C55.3245 45.5674 55.292 45.624 55.2467 45.6694C55.2013 45.7148 55.1449 45.7475 55.0829 45.7641C55.0209 45.7808 54.9557 45.7808 54.8937 45.7641C54.8317 45.7475 54.7752 45.7149 54.7299 45.6695L53.8672 44.8095C53.8223 44.7639 53.7661 44.7312 53.7043 44.7146C53.6426 44.698 53.5775 44.6982 53.5158 44.7152L52.34 45.0296C52.2781 45.0462 52.213 45.0462 52.1511 45.0296C52.0892 45.013 52.0328 44.9804 51.9874 44.9351C51.9421 44.8898 51.9096 44.8334 51.893 44.7715C51.8764 44.7096 51.8764 44.6444 51.893 44.5825L52.2088 43.4081C52.225 43.3462 52.2248 43.2811 52.2083 43.2193C52.1917 43.1574 52.1594 43.101 52.1145 43.0554L51.2531 42.1954C51.2081 42.1501 51.1757 42.0937 51.1593 42.0319C51.1429 41.9701 51.143 41.9051 51.1596 41.8433C51.1762 41.7816 51.2087 41.7253 51.2539 41.6801C51.2992 41.6348 51.3554 41.6023 51.4172 41.5857L52.593 41.2712C52.6546 41.2543 52.7108 41.2216 52.7559 41.1762C52.801 41.1309 52.8334 41.0746 52.85 41.0128L53.1645 39.837C53.1811 39.7751 53.2138 39.7187 53.2592 39.6735C53.3046 39.6282 53.3611 39.5957 53.423 39.5792C53.485 39.5627 53.5502 39.5628 53.6121 39.5795C53.674 39.5962 53.7303 39.6289 53.7756 39.6743L54.6355 40.5343C54.6804 40.5799 54.7367 40.6126 54.7984 40.6292C54.8602 40.6458 54.9252 40.6456 54.9869 40.6286L56.1627 40.3142C56.2246 40.2971 56.29 40.2967 56.3521 40.3129C56.4143 40.3292 56.471 40.3616 56.5167 40.4068C56.5623 40.452 56.5952 40.5085 56.612 40.5705C56.6288 40.6325 56.629 40.6978 56.6125 40.7599Z" fill="#FCB424"/>
<path d="M30.8164 14.9637L30.5006 16.1395C30.4844 16.2015 30.4845 16.2665 30.5011 16.3284C30.5176 16.3902 30.55 16.4467 30.5949 16.4923L31.4562 17.3522C31.5013 17.3976 31.5337 17.454 31.5501 17.5158C31.5665 17.5776 31.5664 17.6426 31.5498 17.7043C31.5332 17.7661 31.5006 17.8224 31.4554 17.8676C31.4102 17.9128 31.3539 17.9454 31.2922 17.962L30.1164 18.2764C30.0547 18.2933 29.9986 18.3261 29.9535 18.3714C29.9084 18.4167 29.8759 18.4731 29.8594 18.5348L29.5449 19.7092C29.5284 19.7713 29.4959 19.8278 29.4506 19.8732C29.4052 19.9187 29.3488 19.9513 29.2868 19.968C29.2248 19.9846 29.1596 19.9846 29.0976 19.968C29.0356 19.9514 28.9791 19.9187 28.9338 19.8733L28.0738 19.0134C28.0289 18.9678 27.9727 18.935 27.911 18.9185C27.8492 18.9019 27.7841 18.9021 27.7225 18.919L26.5467 19.2335C26.4848 19.25 26.4196 19.25 26.3577 19.2335C26.2958 19.2169 26.2394 19.1843 26.1941 19.139C26.1488 19.0937 26.1162 19.0372 26.0996 18.9753C26.083 18.9135 26.083 18.8483 26.0996 18.7864L26.4154 17.612C26.4316 17.5501 26.4315 17.485 26.4149 17.4231C26.3984 17.3613 26.366 17.3048 26.3211 17.2592L25.4598 16.3993C25.4147 16.3539 25.3823 16.2975 25.3659 16.2357C25.3495 16.1739 25.3496 16.1089 25.3662 16.0472C25.3828 15.9854 25.4154 15.9291 25.4606 15.8839C25.5058 15.8387 25.5621 15.8061 25.6238 15.7895L26.7996 15.4751C26.8613 15.4582 26.9174 15.4254 26.9625 15.3801C27.0076 15.3348 27.0401 15.2784 27.0566 15.2167L27.3711 14.0409C27.3878 13.979 27.4204 13.9226 27.4658 13.8773C27.5112 13.832 27.5677 13.7995 27.6297 13.783C27.6916 13.7665 27.7568 13.7667 27.8187 13.7834C27.8806 13.8001 27.937 13.8328 27.9822 13.8782L28.8477 14.7382C28.8925 14.7837 28.9488 14.8165 29.0105 14.833C29.0723 14.8496 29.1374 14.8494 29.199 14.8325L30.3748 14.518C30.4362 14.5028 30.5005 14.5037 30.5614 14.5207C30.6223 14.5378 30.6778 14.5704 30.7223 14.6153C30.7669 14.6603 30.7989 14.716 30.8154 14.7771C30.8319 14.8382 30.8323 14.9025 30.8164 14.9637Z" fill="#ED3F03"/>
</svg>
