<svg xmlns="http://www.w3.org/2000/svg" xmlns:v="https://svgstorm.com"
viewBox = "0 0 90 90"
width="90"
height="90">
<g fill="None" fill-opacity="0.0" stroke="#000000" stroke-opacity="0.00" stroke-width="0.3"><path d="
M 0.00 36.00 
C 0.50 36.00 1.00 36.00 1.00 36.00
C 1.77 29.47 6.88 24.85 8.00 19.00
C 7.55 16.61 8.11 14.22 7.00 12.00
C 9.25 11.86 10.71 14.16 13.00 14.00
C 18.55 6.78 27.19 2.04 36.00 1.00
C 36.13 0.96 36.00 0.00 36.00 0.00
L 0.00 0.00
L 0.00 36.00 Z"/>
</g>
<g fill="None" fill-opacity="0.0" stroke="#A5933E" stroke-opacity="0.46" stroke-width="0.3"><path d="
M 36.00 1.00 
C 37.59 0.81 40.21 1.80 41.00 0.00
L 36.00 0.00
C 36.00 0.00 36.13 0.96 36.00 1.00 Z"/>
</g>
<g fill="None" fill-opacity="0.0" stroke="#FBE261" stroke-opacity="0.97" stroke-width="0.3"><path d="
M 36.00 1.00 
C 27.19 2.04 18.55 6.78 13.00 14.00
C 14.98 14.13 16.67 11.46 19.00 10.00
C 20.31 11.98 23.10 11.75 25.00 13.00
C 25.81 10.96 28.27 10.03 29.00 8.00
C 31.01 9.05 32.98 9.98 35.00 11.00
C 35.81 8.96 38.27 8.03 39.00 6.00
C 41.58 6.24 43.62 8.08 46.00 9.00
C 46.81 6.96 49.27 6.03 50.00 4.00
C 52.58 4.24 54.62 6.08 57.00 7.00
C 57.66 5.07 60.39 4.33 60.00 2.00
C 57.73 1.49 54.61 1.62 53.00 0.00
L 41.00 0.00
C 40.21 1.80 37.59 0.81 36.00 1.00 Z"/>
</g>
<g fill="None" fill-opacity="0.0" stroke="#000000" stroke-opacity="0.01" stroke-width="0.3"><path d="
M 60.00 2.00 
C 64.02 2.90 68.89 5.68 71.00 0.00
L 53.00 0.00
C 54.61 1.62 57.73 1.49 60.00 2.00 Z"/>
</g>
<g fill="None" fill-opacity="0.0" stroke="#FE536C" stroke-opacity="1.00" stroke-width="0.3"><path d="
M 60.00 2.00 
C 60.39 4.33 57.66 5.07 57.00 7.00
C 54.62 6.08 52.58 4.24 50.00 4.00
C 49.27 6.03 46.81 6.96 46.00 9.00
C 43.62 8.08 41.58 6.24 39.00 6.00
C 38.27 8.03 35.81 8.96 35.00 11.00
C 32.98 9.98 31.01 9.05 29.00 8.00
C 28.27 10.03 25.81 10.96 25.00 13.00
C 23.10 11.75 20.31 11.98 19.00 10.00
C 16.67 11.46 14.98 14.13 13.00 14.00
C 10.71 14.16 9.25 11.86 7.00 12.00
C 8.11 14.22 7.55 16.61 8.00 19.00
C 9.19 25.27 10.45 32.11 11.00 39.00
C 16.40 39.17 21.84 37.55 27.02 37.02 C 32.21 36.50 38.21 36.11 43.07 35.07 C 47.94 34.03 54.88 35.00 59.07 33.07 C 63.26 31.15 73.27 34.86 76.00 31.00
C 75.53 24.08 75.07 17.70 74.00 11.00
C 73.41 7.32 73.43 3.46 72.00 0.00
L 71.00 0.00
C 68.89 5.68 64.02 2.90 60.00 2.00 Z"/>
</g>
<g fill="None" fill-opacity="0.0" stroke="#000000" stroke-opacity="0.00" stroke-width="0.3"><path d="
M 74.00 11.00 
C 76.06 15.12 81.84 16.51 83.75 21.25 C 85.67 25.98 88.38 30.69 89.00 36.00
C 89.04 36.13 90.00 36.00 90.00 36.00
L 90.00 0.00
L 72.00 0.00
C 73.43 3.46 73.41 7.32 74.00 11.00 Z"/>
</g>
<g fill="None" fill-opacity="0.0" stroke="#FDE262" stroke-opacity="0.98" stroke-width="0.3"><path d="
M 76.00 31.00 
C 76.49 38.23 77.89 46.50 77.00 54.00 C 76.11 61.50 78.91 70.09 76.00 77.00
C 76.70 76.18 78.26 75.70 79.00 75.00
C 84.40 68.16 88.16 61.75 89.00 53.00
C 89.12 51.71 88.35 49.51 90.00 49.00
L 90.00 41.00
C 88.35 40.16 89.19 37.57 89.00 36.00
C 88.38 30.69 85.67 25.98 83.75 21.25 C 81.84 16.51 76.06 15.12 74.00 11.00
C 75.07 17.70 75.53 24.08 76.00 31.00 Z"/>
</g>
<g fill="None" fill-opacity="0.0" stroke="#FCE265" stroke-opacity="0.98" stroke-width="0.3"><path d="
M 1.00 36.00 
C 0.81 37.59 1.80 40.21 0.00 41.00
L 0.00 51.00
C 1.35 51.27 0.84 53.04 1.00 54.00
C 2.34 61.93 5.57 68.18 11.00 74.00
C 9.33 68.43 12.40 62.86 12.00 57.00 C 11.60 51.14 11.46 44.81 11.00 39.00
C 10.45 32.11 9.19 25.27 8.00 19.00
C 6.88 24.85 1.77 29.47 1.00 36.00 Z"/>
</g>
<g fill="None" fill-opacity="0.0" stroke="#F0F0F5" stroke-opacity="1.00" stroke-width="0.3"><path d="
M 11.00 39.00 
C 11.46 44.81 11.60 51.14 12.00 57.00 C 12.40 62.86 9.33 68.43 11.00 74.00
C 17.98 81.48 25.64 87.14 35.00 90.00
L 36.00 90.00
C 36.47 88.66 39.58 88.43 40.00 90.00
L 52.00 90.00
C 52.27 88.64 54.04 89.19 55.00 89.00
C 62.48 87.54 69.18 83.64 75.00 79.00
C 75.41 78.47 75.61 77.46 76.00 77.00
C 78.91 70.09 76.11 61.50 77.00 54.00 C 77.89 46.50 76.49 38.23 76.00 31.00
C 73.27 34.86 63.26 31.15 59.07 33.07 C 54.88 35.00 47.94 34.03 43.07 35.07 C 38.21 36.11 32.21 36.50 27.02 37.02 C 21.84 37.55 16.40 39.17 11.00 39.00
M 35.00 84.00 
C 37.16 72.76 46.03 61.31 49.78 50.78 C 53.52 40.24 60.30 46.66 53.69 54.69 C 47.09 62.73 45.52 80.90 35.00 84.00
M 28.00 62.00 
C 26.88 58.78 27.04 56.15 28.00 53.00
C 30.92 43.38 41.55 47.82 42.00 57.00 C 42.45 66.19 31.48 72.05 28.00 62.00
M 60.00 63.00 
C 69.67 66.40 62.78 87.43 53.00 82.00 C 43.22 76.57 49.64 59.36 60.00 63.00 Z"/>
</g>
<g fill="None" fill-opacity="0.0" stroke="#9F8D3C" stroke-opacity="0.45" stroke-width="0.3"><path d="
M 0.00 41.00 
C 1.80 40.21 0.81 37.59 1.00 36.00
C 1.00 36.00 0.50 36.00 0.00 36.00
L 0.00 41.00 Z"/>
</g>
<g fill="None" fill-opacity="0.0" stroke="#A3913D" stroke-opacity="0.45" stroke-width="0.3"><path d="
M 90.00 41.00 
L 90.00 36.00
C 90.00 36.00 89.04 36.13 89.00 36.00
C 89.19 37.57 88.35 40.16 90.00 41.00 Z"/>
</g>
<g fill="None" fill-opacity="0.0" stroke="#323E63" stroke-opacity="1.00" stroke-width="0.3"><path d="
M 35.00 84.00 
C 45.52 80.90 47.09 62.73 53.69 54.69 C 60.30 46.66 53.52 40.24 49.78 50.78 C 46.03 61.31 37.16 72.76 35.00 84.00 Z"/>
</g>
<g fill="None" fill-opacity="0.0" stroke="#333E63" stroke-opacity="1.00" stroke-width="0.3"><path d="
M 28.00 53.00 
C 27.59 55.42 27.51 59.60 28.00 62.00
C 31.48 72.05 42.45 66.19 42.00 57.00 C 41.55 47.82 30.92 43.38 28.00 53.00
M 37.00 52.00 
C 38.36 55.17 36.71 65.38 32.78 62.22 C 28.84 59.06 32.38 50.07 37.00 52.00 Z"/>
</g>
<g fill="None" fill-opacity="0.0" stroke="#B8A544" stroke-opacity="0.55" stroke-width="0.3"><path d="
M 89.00 53.00 
C 89.00 52.99 90.00 53.00 90.00 53.00
L 90.00 49.00
C 88.35 49.51 89.12 51.71 89.00 53.00 Z"/>
</g>
<g fill="None" fill-opacity="0.0" stroke="#857A31" stroke-opacity="0.27" stroke-width="0.3"><path d="
M 0.00 54.00 
C 0.50 54.00 1.00 54.00 1.00 54.00
C 0.84 53.04 1.35 51.27 0.00 51.00
L 0.00 54.00 Z"/>
</g>
<g fill="None" fill-opacity="0.0" stroke="#EBECF1" stroke-opacity="1.00" stroke-width="0.3"><path d="
M 37.00 52.00 
C 32.38 50.07 28.84 59.06 32.78 62.22 C 36.71 65.38 38.36 55.17 37.00 52.00 Z"/>
</g>
<g fill="None" fill-opacity="0.0" stroke="#979CB0" stroke-opacity="1.00" stroke-width="0.3"><path d="
M 28.00 62.00 
C 27.51 59.60 27.59 55.42 28.00 53.00
C 27.04 56.15 26.88 58.78 28.00 62.00 Z"/>
</g>
<g fill="None" fill-opacity="0.0" stroke="#000000" stroke-opacity="0.00" stroke-width="0.3"><path d="
M 79.00 75.00 
C 77.72 76.62 76.56 77.76 75.00 79.00
C 69.18 83.64 62.48 87.54 55.00 89.00
C 54.86 89.05 55.00 90.00 55.00 90.00
L 90.00 90.00
L 90.00 53.00
C 90.00 53.00 89.00 52.99 89.00 53.00
C 88.16 61.75 84.40 68.16 79.00 75.00 Z"/>
</g>
<g fill="None" fill-opacity="0.0" stroke="#000000" stroke-opacity="0.00" stroke-width="0.3"><path d="
M 0.00 90.00 
L 35.00 90.00
C 25.64 87.14 17.98 81.48 11.00 74.00
C 5.57 68.18 2.34 61.93 1.00 54.00
C 1.00 54.00 0.50 54.00 0.00 54.00
L 0.00 90.00 Z"/>
</g>
<g fill="None" fill-opacity="0.0" stroke="#364165" stroke-opacity="1.00" stroke-width="0.3"><path d="
M 60.00 63.00 
C 49.64 59.36 43.22 76.57 53.00 82.00 C 62.78 87.43 69.67 66.40 60.00 63.00
M 59.00 78.00 
C 54.41 79.97 50.84 70.94 54.78 67.78 C 58.71 64.62 60.32 74.83 59.00 78.00 Z"/>
</g>
<g fill="None" fill-opacity="0.0" stroke="#EEEEF3" stroke-opacity="1.00" stroke-width="0.3"><path d="
M 59.00 78.00 
C 60.32 74.83 58.71 64.62 54.78 67.78 C 50.84 70.94 54.41 79.97 59.00 78.00 Z"/>
</g>
<g fill="None" fill-opacity="0.0" stroke="#686036" stroke-opacity="0.07" stroke-width="0.3"><path d="
M 76.00 77.00 
C 75.61 77.46 75.41 78.47 75.00 79.00
C 76.56 77.76 77.72 76.62 79.00 75.00
C 78.26 75.70 76.70 76.18 76.00 77.00 Z"/>
</g>
<g fill="None" fill-opacity="0.0" stroke="#8C8880" stroke-opacity="0.40" stroke-width="0.3"><path d="
M 36.00 90.00 
L 40.00 90.00
C 39.58 88.43 36.47 88.66 36.00 90.00 Z"/>
</g>
<g fill="None" fill-opacity="0.0" stroke="#5A5751" stroke-opacity="0.14" stroke-width="0.3"><path d="
M 52.00 90.00 
L 55.00 90.00
C 55.00 90.00 54.86 89.05 55.00 89.00
C 54.04 89.19 52.27 88.64 52.00 90.00 Z"/>
</g>
<g fill="#000000" fill-opacity="0.00" stroke="None">
<path d="
M 0.00 36.00 
C 0.50 36.00 1.00 36.00 1.00 36.00
C 1.77 29.47 6.88 24.85 8.00 19.00
C 7.55 16.61 8.11 14.22 7.00 12.00
C 9.25 11.86 10.71 14.16 13.00 14.00
C 18.55 6.78 27.19 2.04 36.00 1.00
C 36.13 0.96 36.00 0.00 36.00 0.00
L 0.00 0.00
L 0.00 36.00 Z"/>
</g>
<g fill="#A5933E" fill-opacity="0.46" stroke="None">
<path d="
M 36.00 1.00 
C 37.59 0.81 40.21 1.80 41.00 0.00
L 36.00 0.00
C 36.00 0.00 36.13 0.96 36.00 1.00 Z"/>
</g>
<g fill="#FBE261" fill-opacity="0.97" stroke="None">
<path d="
M 36.00 1.00 
C 27.19 2.04 18.55 6.78 13.00 14.00
C 14.98 14.13 16.67 11.46 19.00 10.00
C 20.31 11.98 23.10 11.75 25.00 13.00
C 25.81 10.96 28.27 10.03 29.00 8.00
C 31.01 9.05 32.98 9.98 35.00 11.00
C 35.81 8.96 38.27 8.03 39.00 6.00
C 41.58 6.24 43.62 8.08 46.00 9.00
C 46.81 6.96 49.27 6.03 50.00 4.00
C 52.58 4.24 54.62 6.08 57.00 7.00
C 57.66 5.07 60.39 4.33 60.00 2.00
C 57.73 1.49 54.61 1.62 53.00 0.00
L 41.00 0.00
C 40.21 1.80 37.59 0.81 36.00 1.00 Z"/>
</g>
<g fill="#000000" fill-opacity="0.01" stroke="None">
<path d="
M 60.00 2.00 
C 64.02 2.90 68.89 5.68 71.00 0.00
L 53.00 0.00
C 54.61 1.62 57.73 1.49 60.00 2.00 Z"/>
</g>
<g fill="#FE536C" fill-opacity="1.00" stroke="None">
<path d="
M 60.00 2.00 
C 60.39 4.33 57.66 5.07 57.00 7.00
C 54.62 6.08 52.58 4.24 50.00 4.00
C 49.27 6.03 46.81 6.96 46.00 9.00
C 43.62 8.08 41.58 6.24 39.00 6.00
C 38.27 8.03 35.81 8.96 35.00 11.00
C 32.98 9.98 31.01 9.05 29.00 8.00
C 28.27 10.03 25.81 10.96 25.00 13.00
C 23.10 11.75 20.31 11.98 19.00 10.00
C 16.67 11.46 14.98 14.13 13.00 14.00
C 10.71 14.16 9.25 11.86 7.00 12.00
C 8.11 14.22 7.55 16.61 8.00 19.00
C 9.19 25.27 10.45 32.11 11.00 39.00
C 16.40 39.17 21.84 37.55 27.02 37.02 C 32.21 36.50 38.21 36.11 43.07 35.07 C 47.94 34.03 54.88 35.00 59.07 33.07 C 63.26 31.15 73.27 34.86 76.00 31.00
C 75.53 24.08 75.07 17.70 74.00 11.00
C 73.41 7.32 73.43 3.46 72.00 0.00
L 71.00 0.00
C 68.89 5.68 64.02 2.90 60.00 2.00 Z"/>
</g>
<g fill="#000000" fill-opacity="0.00" stroke="None">
<path d="
M 74.00 11.00 
C 76.06 15.12 81.84 16.51 83.75 21.25 C 85.67 25.98 88.38 30.69 89.00 36.00
C 89.04 36.13 90.00 36.00 90.00 36.00
L 90.00 0.00
L 72.00 0.00
C 73.43 3.46 73.41 7.32 74.00 11.00 Z"/>
</g>
<g fill="#FDE262" fill-opacity="0.98" stroke="None">
<path d="
M 76.00 31.00 
C 76.49 38.23 77.89 46.50 77.00 54.00 C 76.11 61.50 78.91 70.09 76.00 77.00
C 76.70 76.18 78.26 75.70 79.00 75.00
C 84.40 68.16 88.16 61.75 89.00 53.00
C 89.12 51.71 88.35 49.51 90.00 49.00
L 90.00 41.00
C 88.35 40.16 89.19 37.57 89.00 36.00
C 88.38 30.69 85.67 25.98 83.75 21.25 C 81.84 16.51 76.06 15.12 74.00 11.00
C 75.07 17.70 75.53 24.08 76.00 31.00 Z"/>
</g>
<g fill="#FCE265" fill-opacity="0.98" stroke="None">
<path d="
M 1.00 36.00 
C 0.81 37.59 1.80 40.21 0.00 41.00
L 0.00 51.00
C 1.35 51.27 0.84 53.04 1.00 54.00
C 2.34 61.93 5.57 68.18 11.00 74.00
C 9.33 68.43 12.40 62.86 12.00 57.00 C 11.60 51.14 11.46 44.81 11.00 39.00
C 10.45 32.11 9.19 25.27 8.00 19.00
C 6.88 24.85 1.77 29.47 1.00 36.00 Z"/>
</g>
<g fill="#F0F0F5" fill-opacity="1.00" stroke="None">
<path d="
M 11.00 39.00 
C 11.46 44.81 11.60 51.14 12.00 57.00 C 12.40 62.86 9.33 68.43 11.00 74.00
C 17.98 81.48 25.64 87.14 35.00 90.00
L 36.00 90.00
C 36.47 88.66 39.58 88.43 40.00 90.00
L 52.00 90.00
C 52.27 88.64 54.04 89.19 55.00 89.00
C 62.48 87.54 69.18 83.64 75.00 79.00
C 75.41 78.47 75.61 77.46 76.00 77.00
C 78.91 70.09 76.11 61.50 77.00 54.00 C 77.89 46.50 76.49 38.23 76.00 31.00
C 73.27 34.86 63.26 31.15 59.07 33.07 C 54.88 35.00 47.94 34.03 43.07 35.07 C 38.21 36.11 32.21 36.50 27.02 37.02 C 21.84 37.55 16.40 39.17 11.00 39.00
M 35.00 84.00 
C 37.16 72.76 46.03 61.31 49.78 50.78 C 53.52 40.24 60.30 46.66 53.69 54.69 C 47.09 62.73 45.52 80.90 35.00 84.00
M 28.00 62.00 
C 26.88 58.78 27.04 56.15 28.00 53.00
C 30.92 43.38 41.55 47.82 42.00 57.00 C 42.45 66.19 31.48 72.05 28.00 62.00
M 60.00 63.00 
C 69.67 66.40 62.78 87.43 53.00 82.00 C 43.22 76.57 49.64 59.36 60.00 63.00 Z"/>
</g>
<g fill="#9F8D3C" fill-opacity="0.45" stroke="None">
<path d="
M 0.00 41.00 
C 1.80 40.21 0.81 37.59 1.00 36.00
C 1.00 36.00 0.50 36.00 0.00 36.00
L 0.00 41.00 Z"/>
</g>
<g fill="#A3913D" fill-opacity="0.45" stroke="None">
<path d="
M 90.00 41.00 
L 90.00 36.00
C 90.00 36.00 89.04 36.13 89.00 36.00
C 89.19 37.57 88.35 40.16 90.00 41.00 Z"/>
</g>
<g fill="#323E63" fill-opacity="1.00" stroke="None">
<path d="
M 35.00 84.00 
C 45.52 80.90 47.09 62.73 53.69 54.69 C 60.30 46.66 53.52 40.24 49.78 50.78 C 46.03 61.31 37.16 72.76 35.00 84.00 Z"/>
</g>
<g fill="#333E63" fill-opacity="1.00" stroke="None">
<path d="
M 28.00 53.00 
C 27.59 55.42 27.51 59.60 28.00 62.00
C 31.48 72.05 42.45 66.19 42.00 57.00 C 41.55 47.82 30.92 43.38 28.00 53.00
M 37.00 52.00 
C 38.36 55.17 36.71 65.38 32.78 62.22 C 28.84 59.06 32.38 50.07 37.00 52.00 Z"/>
</g>
<g fill="#B8A544" fill-opacity="0.55" stroke="None">
<path d="
M 89.00 53.00 
C 89.00 52.99 90.00 53.00 90.00 53.00
L 90.00 49.00
C 88.35 49.51 89.12 51.71 89.00 53.00 Z"/>
</g>
<g fill="#857A31" fill-opacity="0.27" stroke="None">
<path d="
M 0.00 54.00 
C 0.50 54.00 1.00 54.00 1.00 54.00
C 0.84 53.04 1.35 51.27 0.00 51.00
L 0.00 54.00 Z"/>
</g>
<g fill="#EBECF1" fill-opacity="1.00" stroke="None">
<path d="
M 37.00 52.00 
C 32.38 50.07 28.84 59.06 32.78 62.22 C 36.71 65.38 38.36 55.17 37.00 52.00 Z"/>
</g>
<g fill="#979CB0" fill-opacity="1.00" stroke="None">
<path d="
M 28.00 62.00 
C 27.51 59.60 27.59 55.42 28.00 53.00
C 27.04 56.15 26.88 58.78 28.00 62.00 Z"/>
</g>
<g fill="#000000" fill-opacity="0.00" stroke="None">
<path d="
M 79.00 75.00 
C 77.72 76.62 76.56 77.76 75.00 79.00
C 69.18 83.64 62.48 87.54 55.00 89.00
C 54.86 89.05 55.00 90.00 55.00 90.00
L 90.00 90.00
L 90.00 53.00
C 90.00 53.00 89.00 52.99 89.00 53.00
C 88.16 61.75 84.40 68.16 79.00 75.00 Z"/>
</g>
<g fill="#000000" fill-opacity="0.00" stroke="None">
<path d="
M 0.00 90.00 
L 35.00 90.00
C 25.64 87.14 17.98 81.48 11.00 74.00
C 5.57 68.18 2.34 61.93 1.00 54.00
C 1.00 54.00 0.50 54.00 0.00 54.00
L 0.00 90.00 Z"/>
</g>
<g fill="#364165" fill-opacity="1.00" stroke="None">
<path d="
M 60.00 63.00 
C 49.64 59.36 43.22 76.57 53.00 82.00 C 62.78 87.43 69.67 66.40 60.00 63.00
M 59.00 78.00 
C 54.41 79.97 50.84 70.94 54.78 67.78 C 58.71 64.62 60.32 74.83 59.00 78.00 Z"/>
</g>
<g fill="#EEEEF3" fill-opacity="1.00" stroke="None">
<path d="
M 59.00 78.00 
C 60.32 74.83 58.71 64.62 54.78 67.78 C 50.84 70.94 54.41 79.97 59.00 78.00 Z"/>
</g>
<g fill="#686036" fill-opacity="0.07" stroke="None">
<path d="
M 76.00 77.00 
C 75.61 77.46 75.41 78.47 75.00 79.00
C 76.56 77.76 77.72 76.62 79.00 75.00
C 78.26 75.70 76.70 76.18 76.00 77.00 Z"/>
</g>
<g fill="#8C8880" fill-opacity="0.40" stroke="None">
<path d="
M 36.00 90.00 
L 40.00 90.00
C 39.58 88.43 36.47 88.66 36.00 90.00 Z"/>
</g>
<g fill="#5A5751" fill-opacity="0.14" stroke="None">
<path d="
M 52.00 90.00 
L 55.00 90.00
C 55.00 90.00 54.86 89.05 55.00 89.00
C 54.04 89.19 52.27 88.64 52.00 90.00 Z"/>
</g>
</svg>