<svg width="12" height="12" viewBox="0 0 12 12" fill="none" xmlns="http://www.w3.org/2000/svg">
<path d="M5.14801 7.03552L4.983 7.46308H5.31302L5.14801 7.03552Z" fill="#37A477"/>
<path d="M6.92108 7.46308H7.2511L7.08609 7.03552L6.92108 7.46308Z" fill="#37A477"/>
<path d="M9.23991 4.53096C9.04974 4.07272 9.03199 3.61052 9.01631 3.20295C9.00916 3.01372 8.85888 2.86362 8.67431 2.85638C8.2626 2.8407 7.80066 2.82312 7.34173 2.63269C6.89461 2.44743 6.56399 2.13757 6.2724 1.86425C6.25475 1.85255 6.17059 1.74207 5.99985 1.74207C5.8292 1.74207 5.74566 1.85237 5.72799 1.86408C5.43546 2.13792 5.10492 2.44743 4.65797 2.63269C4.19895 2.8226 3.73684 2.84001 3.3291 2.85535C3.1397 2.86276 2.98925 3.01303 2.9821 3.19795C2.96599 3.61017 2.94798 4.0722 2.75781 4.53044C2.57491 4.97135 2.28309 5.2862 1.96205 5.62873C1.83444 5.76504 1.83444 5.9796 1.96248 6.11643C2.28055 6.45619 2.57489 6.77389 2.75763 7.21507C2.94746 7.67313 2.96538 8.13499 2.98106 8.54239C2.98847 8.73385 3.13884 8.8843 3.32375 8.89137C3.73649 8.90705 4.19843 8.92463 4.65753 9.11506C5.10065 9.29855 5.41678 9.59235 5.75565 9.90969C5.89291 10.0381 6.10747 10.0384 6.24439 9.91004C6.58572 9.58236 6.92255 9.28896 7.34207 9.11471C7.80083 8.92445 8.26251 8.90653 8.66991 8.89085C8.85957 8.88344 9.00976 8.73299 9.01682 8.54825C9.03242 8.13585 9.04991 7.67348 9.23999 7.21455C9.42284 6.77321 9.71396 6.45896 10.0346 6.11661C10.1627 5.9796 10.1627 5.76504 10.0345 5.62821C9.7168 5.28921 9.42261 4.97152 9.23991 4.53096ZM5.38599 5.18617H5.59736C5.79072 5.18617 5.96547 5.11065 6.09862 4.99005L5.38522 3.89642C5.34524 3.83507 5.36247 3.75304 5.42373 3.71323C5.48483 3.67307 5.56694 3.69048 5.60684 3.75166L6.268 4.76523C6.3172 4.66545 6.34736 4.55475 6.34736 4.43617V3.31031C6.34736 3.23724 6.40664 3.17795 6.47971 3.17795C6.55278 3.17795 6.61207 3.23724 6.61207 3.31031V4.43617V4.74637C6.61207 4.98498 6.82193 5.16954 7.05953 5.14068C7.25841 5.1162 7.44427 5.08518 7.62401 5.0552C7.77584 5.02969 7.9206 5.00556 8.0701 4.98557C7.97997 4.88304 7.91173 4.78187 7.85494 4.69777C7.7294 4.51183 7.67623 4.44668 7.57309 4.44668C7.37008 4.44668 7.29141 4.69243 7.29063 4.69502C7.26909 4.76481 7.19533 4.80445 7.12502 4.78205C7.05514 4.7605 7.01619 4.68623 7.03782 4.61643C7.04333 4.59868 7.17724 4.18198 7.57309 4.18198C7.82616 4.18198 7.94671 4.36069 8.07441 4.54974C8.14015 4.64728 8.21477 4.75775 8.31826 4.86408C8.44626 4.99522 8.36966 5.21534 8.18703 5.23735C8.01263 5.25855 7.84503 5.28664 7.66761 5.31628C7.48511 5.34679 7.2964 5.37815 7.09176 5.40331C6.8246 5.43574 6.54716 5.30567 6.4153 5.03416C6.23052 5.28623 5.93315 5.45088 5.59736 5.45088H5.38599C5.31292 5.45088 5.25364 5.39159 5.25364 5.31852C5.25364 5.24545 5.31292 5.18617 5.38599 5.18617ZM6.49057 7.6671C6.51259 7.6671 6.53107 7.68531 6.53107 7.7076V7.8141C6.53107 7.83637 6.51259 7.8546 6.49057 7.8546H5.83355C5.81153 7.8546 5.79305 7.83637 5.79305 7.8141V6.84506C5.79305 6.82278 5.81153 6.80457 5.83355 6.80457H5.95504C5.97706 6.80457 5.99554 6.82278 5.99554 6.84506V7.6671H6.49057ZM3.79267 6.29738C3.71961 6.29738 3.66032 6.2381 3.66032 6.16503C3.66032 6.09196 3.71961 6.03268 3.79267 6.03268H8.20444C8.27751 6.03268 8.33679 6.09196 8.33679 6.16503C8.33679 6.2381 8.27751 6.29738 8.20444 6.29738H3.79267ZM3.74787 4.60902C3.82094 4.60902 3.88022 4.66831 3.88022 4.74138C3.88022 4.98661 4.0797 5.18617 4.32493 5.18617C4.57016 5.18617 4.76964 4.98661 4.76964 4.74138V3.31031C4.76964 3.23724 4.82892 3.17796 4.90199 3.17796C4.97506 3.17796 5.03435 3.23724 5.03435 3.31031V4.74138C5.03435 5.13258 4.71613 5.45088 4.32493 5.45088C3.93373 5.45088 3.61552 5.13258 3.61552 4.74138C3.61552 4.66831 3.6748 4.60902 3.74787 4.60902ZM4.50295 7.8141C4.50295 7.836 4.48477 7.8546 4.46245 7.8546H4.34096C4.31894 7.8546 4.30046 7.83637 4.30046 7.8141V7.41808H3.84739V7.8141C3.84739 7.83637 3.82891 7.8546 3.80689 7.8546H3.6854C3.66401 7.8546 3.6449 7.839 3.6449 7.8141V6.84506C3.6449 6.82278 3.66338 6.80457 3.6854 6.80457H3.80689C3.82891 6.80457 3.84739 6.82278 3.84739 6.84506V7.23058H4.30046V6.84506C4.30046 6.82278 4.31894 6.80457 4.34096 6.80457H4.46245C4.48482 6.80457 4.50295 6.82318 4.50295 6.84506V7.8141ZM4.67994 7.8546C4.65181 7.8546 4.63324 7.82559 4.64099 7.80359L5.0085 6.85558C5.02381 6.81225 5.04103 6.80457 5.06545 6.80457H5.23046C5.25511 6.80457 5.27226 6.81241 5.28751 6.85558L5.65501 7.80359C5.66274 7.8255 5.64428 7.8546 5.61606 7.8546H5.50801C5.48108 7.8546 5.4607 7.84708 5.4495 7.81703L5.38505 7.65056H4.91096L4.8465 7.81703C4.8353 7.84708 4.81479 7.8546 4.78799 7.8546H4.67994ZM7.05738 8.59995H4.93973C4.86666 8.59995 4.80738 8.54066 4.80738 8.46759C4.80738 8.39452 4.86666 8.33524 4.93973 8.33524H7.05738C7.13045 8.33524 7.18973 8.39452 7.18973 8.46759C7.18973 8.54066 7.13045 8.59995 7.05738 8.59995ZM7.55413 7.8546H7.44608C7.41915 7.8546 7.39878 7.84708 7.38757 7.81703L7.32312 7.65056H6.84903L6.78458 7.81703C6.77338 7.84708 6.75287 7.8546 6.72607 7.8546H6.61802C6.5957 7.8546 6.57752 7.83587 6.57752 7.8141C6.57752 7.79641 6.57325 7.82118 6.94657 6.85558C6.96189 6.81225 6.9791 6.80457 7.00353 6.80457H7.16854C7.19318 6.80457 7.21033 6.81241 7.22558 6.85558L7.59309 7.80359C7.60082 7.8255 7.58236 7.8546 7.55413 7.8546ZM8.46914 7.8141C8.46914 7.83637 8.45066 7.8546 8.42865 7.8546H7.77162C7.74961 7.8546 7.73112 7.83637 7.73112 7.8141V6.84506C7.73112 6.82278 7.74961 6.80457 7.77162 6.80457H7.89312C7.91513 6.80457 7.93362 6.82278 7.93362 6.84506V7.6671H8.42865C8.45066 7.6671 8.46915 7.68531 8.46915 7.7076L8.46914 7.8141Z" fill="#37A477"/>
<path d="M10.3402 4.07471C10.0815 3.45095 10.3688 2.4442 9.89863 1.97404C9.4285 1.50389 8.42172 1.79115 7.79794 1.53241C7.1961 1.28276 6.69273 0.359131 6.00073 0.359131C5.30822 0.359131 4.80434 1.28266 4.20229 1.532C3.57792 1.79055 2.5711 1.50284 2.10062 1.9728C1.62994 2.44297 1.91666 3.45009 1.65766 4.07401C1.40775 4.67606 0.484039 5.17962 0.484039 5.87192C0.484039 6.5647 1.40764 7.06878 1.65725 7.67105C1.91605 8.29554 1.62888 9.3027 2.09937 9.7732C2.56989 10.2437 3.57706 9.95657 4.20158 10.2154C4.80384 10.465 5.30792 11.3886 6.00073 11.3886C6.69302 11.3886 7.19656 10.4649 7.79861 10.215C8.4225 9.95601 9.4296 10.2427 9.89975 9.77209C10.3697 9.30159 10.082 8.29475 10.3406 7.67038C10.5899 7.06832 11.5135 6.56441 11.5135 5.87192C11.5135 5.17992 10.5898 4.67654 10.3402 4.07471ZM10.2279 6.29737C9.93517 6.60995 9.6509 6.91436 9.48456 7.31587C9.31265 7.73102 9.29611 8.16806 9.28155 8.55357C9.26905 8.88032 9.00727 9.14244 8.68527 9.15502C8.29502 9.17019 7.85841 9.18707 7.44351 9.35906C7.04551 9.5244 6.74493 9.80374 6.4382 10.0911C6.43811 10.0911 6.42544 10.103 6.42544 10.1032C6.18756 10.3258 5.81409 10.3269 5.57506 10.1032C5.26272 9.81071 4.9572 9.52559 4.55622 9.35941C4.14098 9.18742 3.70419 9.1707 3.31885 9.15588C2.99142 9.14365 2.72921 8.88135 2.71689 8.55892C2.70172 8.16737 2.68484 7.73068 2.5131 7.31638C2.34852 6.91917 2.07029 6.61894 1.78042 6.30926C1.54631 6.05903 1.54631 5.68558 1.76922 5.44724C2.06003 5.13703 2.34643 4.8313 2.51327 4.42909C2.68535 4.01463 2.70233 3.57776 2.71732 3.19224C2.73007 2.8655 2.99228 2.60355 3.31437 2.59114C3.70462 2.57632 4.14158 2.55978 4.55673 2.38796C4.95734 2.22205 5.26042 1.93937 5.56799 1.65157C5.81383 1.42151 6.18736 1.42168 6.42553 1.6452C6.73651 1.93656 7.04143 2.22172 7.44308 2.3883C7.85823 2.56029 8.29501 2.57701 8.68035 2.59183C9.00641 2.60441 9.26836 2.86619 9.28077 3.18811C9.29567 3.5781 9.31248 4.01514 9.48447 4.42961C9.64915 4.82677 9.92728 5.12663 10.2171 5.43587C10.4508 5.68558 10.4508 6.05903 10.2279 6.29737Z" fill="#37A477"/>
</svg>
