<svg width="22" height="20" viewBox="0 0 22 20" fill="none" xmlns="http://www.w3.org/2000/svg">
<path d="M5.74332 18.4007C4.7117 17.2906 3.87837 16.2047 3.07339 15.1531C2.33782 14.1969 1.70003 13.1751 1.16882 12.1019C0.836338 11.4507 0.689175 10.7913 1.40935 10.3673C3.47329 9.15244 3.89625 10.3124 5.01807 11.6584C5.68304 12.4559 6.66358 13.7711 7.27796 14.602C7.86482 15.3955 8.58025 13.9633 8.86586 13.5592C9.88096 12.123 12.5193 8.6069 13.6095 7.30721C14.6446 6.0734 17.9855 2.61692 18.6082 2.06715C19.1384 1.59903 20.2576 0.57227 21.0103 1.13869C21.8012 1.73383 22.1876 2.8651 21.6316 3.60067C20.6634 4.88125 19.1426 6.09945 18.0902 7.3188C15.9601 9.78704 13.9433 12.4476 12.0075 15.0967C11.3497 15.9969 10.4261 17.5046 9.85267 18.4809C8.78007 20.3073 7.83795 20.6549 5.74332 18.4007Z" fill="#FFBA08"/>
</svg>
