<svg width="20" height="20" viewBox="0 0 20 20" fill="none" xmlns="http://www.w3.org/2000/svg">
<g clip-path="url(#clip0_10991_22796)">
<path d="M14.3394 7.32707C14.0144 7.00165 13.4861 7.00165 13.1611 7.32707L9.58355 10.9042L8.08939 9.4104C7.76439 9.08499 7.23605 9.08499 6.91105 9.4104C6.58564 9.73582 6.58564 10.2633 6.91105 10.5887L8.99439 12.6721C9.15689 12.835 9.37022 12.9162 9.58355 12.9162C9.79689 12.9162 10.0102 12.835 10.1727 12.6721L14.3394 8.5054C14.6648 8.17999 14.6648 7.65249 14.3394 7.32707Z" fill="#FFBA08"/>
<path d="M19.1667 9.16667C18.7067 9.16667 18.3333 9.54 18.3333 10C18.3333 14.595 14.595 18.3333 10 18.3333C5.405 18.3333 1.66667 14.595 1.66667 10C1.66667 5.405 5.405 1.66667 10 1.66667C12.2371 1.66667 14.3371 2.54083 15.9137 4.12833C16.2375 4.45542 16.7654 4.45708 17.0921 4.1325C17.4187 3.80833 17.4204 3.28083 17.0962 2.95417C15.2046 1.04917 12.6842 0 10 0C4.48583 0 0 4.48583 0 10C0 15.5142 4.48583 20 10 20C15.5142 20 20 15.5142 20 10C20 9.54 19.6267 9.16667 19.1667 9.16667Z" fill="#FFBA08"/>
</g>
<defs>
<clipPath id="clip0_10991_22796">
<rect width="20" height="20" fill="white"/>
</clipPath>
</defs>
</svg>
