<svg width="20" height="20" viewBox="0 0 20 20" fill="none" xmlns="http://www.w3.org/2000/svg">
<g clip-path="url(#clip0_10991_22781)">
<path d="M14 0H5.99995C5.11696 0.00165201 4.2706 0.353152 3.64623 0.977525C3.02185 1.6019 2.67035 2.44826 2.6687 3.33125V4.66875C2.68475 4.83416 2.76181 4.98766 2.88486 5.09936C3.00791 5.21105 3.16814 5.27292 3.33433 5.27292C3.50051 5.27292 3.66074 5.21105 3.78379 5.09936C3.90685 4.98766 3.9839 4.83416 3.99995 4.66875V3.33125C3.99995 2.80082 4.21066 2.29211 4.58574 1.91704C4.96081 1.54196 5.46952 1.33125 5.99995 1.33125H14C14.5304 1.33125 15.0391 1.54196 15.4142 1.91704C15.7892 2.29211 16 2.80082 16 3.33125V12.6688C16.016 12.8342 16.0931 12.9877 16.2161 13.0994C16.3392 13.211 16.4994 13.2729 16.6656 13.2729C16.8318 13.2729 16.992 13.211 17.115 13.0994C17.2381 12.9877 17.3152 12.8342 17.3312 12.6688V3.33125C17.3295 2.44826 16.978 1.6019 16.3537 0.977525C15.7293 0.353152 14.8829 0.00165201 14 0Z" fill="#FFBA08"/>
<path d="M16.6689 14.6692C16.4916 14.6692 16.3215 14.7397 16.1961 14.8651C16.0707 14.9905 16.0002 15.1606 16.0002 15.338V16.6692C16.0002 17.1996 15.7895 17.7084 15.4144 18.0834C15.0393 18.4585 14.5306 18.6692 14.0002 18.6692H6.0002C5.46976 18.6692 4.96105 18.4585 4.58598 18.0834C4.21091 17.7084 4.0002 17.1996 4.0002 16.6692V7.33171C3.98415 7.16631 3.90709 7.0128 3.78404 6.90111C3.66099 6.78941 3.50075 6.72754 3.33457 6.72754C3.16839 6.72754 3.00816 6.78941 2.8851 6.90111C2.76205 7.0128 2.68499 7.16631 2.66895 7.33171V16.6692C2.6706 17.5522 3.0221 18.3986 3.64647 19.0229C4.27084 19.6473 5.1172 19.9988 6.0002 20.0005H14.0002C14.8832 19.9988 15.7295 19.6473 16.3539 19.0229C16.9783 18.3986 17.3298 17.5522 17.3314 16.6692V15.3317C17.3298 15.1565 17.2595 14.9889 17.1356 14.8651C17.0117 14.7412 16.8441 14.6708 16.6689 14.6692Z" fill="#FFBA08"/>
<path d="M10.0001 6.66906C9.83152 6.68011 9.67335 6.75457 9.55741 6.87747C9.44147 7.00037 9.37634 7.16261 9.37512 7.33156V7.66281C8.47946 7.82 7.66779 8.28767 7.0826 8.98372C6.49742 9.67977 6.17612 10.5597 6.17512 11.4691H6.01262C5.91979 11.4601 5.8261 11.4706 5.73758 11.4999C5.64905 11.5293 5.56764 11.5768 5.49858 11.6395C5.42952 11.7022 5.37433 11.7786 5.33657 11.8639C5.29881 11.9492 5.2793 12.0414 5.2793 12.1347C5.2793 12.228 5.29881 12.3202 5.33657 12.4055C5.37433 12.4907 5.42952 12.5672 5.49858 12.6299C5.56764 12.6926 5.64905 12.7401 5.73758 12.7695C5.8261 12.7988 5.91979 12.8093 6.01262 12.8003H14.0126C14.1055 12.8093 14.1991 12.7988 14.2877 12.7695C14.3762 12.7401 14.4576 12.6926 14.5267 12.6299C14.5957 12.5672 14.6509 12.4907 14.6887 12.4055C14.7264 12.3202 14.7459 12.228 14.7459 12.1347C14.7459 12.0414 14.7264 11.9492 14.6887 11.8639C14.6509 11.7786 14.5957 11.7022 14.5267 11.6395C14.4576 11.5768 14.3762 11.5293 14.2877 11.4999C14.1991 11.4706 14.1055 11.4601 14.0126 11.4691H13.8751C13.8729 10.5617 13.5518 9.68395 12.968 8.98933C12.3842 8.2947 11.5748 7.82737 10.6814 7.66906V7.33781C10.6814 7.24893 10.6637 7.16093 10.6293 7.07897C10.5949 6.99701 10.5445 6.92273 10.4811 6.86046C10.4177 6.79819 10.3425 6.7492 10.2599 6.71633C10.1773 6.68347 10.089 6.6674 10.0001 6.66906ZM12.5001 11.4691H7.50012C7.50012 10.7977 7.76681 10.1539 8.24151 9.6792C8.71621 9.2045 9.36004 8.93781 10.0314 8.93781C10.7027 8.93781 11.3465 9.2045 11.8212 9.6792C12.2959 10.1539 12.5626 10.7977 12.5626 11.4691H12.5001Z" fill="#FFBA08"/>
<path d="M6.00627 2.66895C5.84087 2.68499 5.68736 2.76205 5.57567 2.8851C5.46397 3.00816 5.4021 3.16839 5.4021 3.33457C5.4021 3.50075 5.46397 3.66099 5.57567 3.78404C5.68736 3.90709 5.84087 3.98415 6.00627 4.0002C6.17168 3.98415 6.32519 3.90709 6.43688 3.78404C6.54857 3.66099 6.61045 3.50075 6.61045 3.33457C6.61045 3.16839 6.54857 3.00816 6.43688 2.8851C6.32519 2.76205 6.17168 2.68499 6.00627 2.66895Z" fill="#FFBA08"/>
</g>
<defs>
<clipPath id="clip0_10991_22781">
<rect width="20" height="20" fill="white"/>
</clipPath>
</defs>
</svg>
