<svg width="168" height="114" viewBox="0 0 168 114" fill="none" xmlns="http://www.w3.org/2000/svg">
<g clip-path="url(#clip0_10991_23264)">
<path d="M34.0095 88.509H32.9911V87.1377C32.9919 86.9983 32.9651 86.8601 32.9122 86.7311C32.8594 86.6022 32.7816 86.4849 32.6834 86.386C32.5851 86.2872 32.4683 86.2088 32.3396 86.1553C32.2109 86.1018 32.0729 86.0742 31.9336 86.0742H19.9033C19.6223 86.0757 19.3533 86.1884 19.1551 86.3877C18.957 86.587 18.8457 86.8566 18.8457 87.1377V95.5336C18.8472 97.0636 19.4555 98.5306 20.537 99.6125C21.6186 100.694 23.0851 101.303 24.6147 101.304H27.2278C28.4313 101.302 29.6037 100.922 30.581 100.22C31.5583 99.5171 32.2914 98.5264 32.6778 97.3863H34.0095C34.4978 97.3863 34.966 97.1923 35.3112 96.8469C35.6565 96.5016 35.8504 96.0332 35.8504 95.5448V90.3169C35.8416 89.8344 35.6438 89.3746 35.2995 89.0365C34.9552 88.6983 34.492 88.5089 34.0095 88.509ZM34.6754 95.5784C34.6739 95.7546 34.6033 95.9231 34.4787 96.0477C34.3542 96.1723 34.1857 96.243 34.0095 96.2444H32.9464C32.9754 96.0142 32.9903 95.7824 32.9911 95.5504V89.69H34.0095C34.1852 89.69 34.3537 89.7594 34.4784 89.8831C34.6031 90.0069 34.6739 90.1748 34.6754 90.3505V95.5784Z" fill="#B1DCFF"/>
<path d="M31.4468 89.0632C31.444 88.0362 31.2366 87.0201 30.8368 86.0742H19.9033C19.6223 86.0757 19.3533 86.1884 19.1551 86.3877C18.957 86.587 18.8457 86.8566 18.8457 87.1377V95.5336C18.8471 96.5131 19.0974 97.4761 19.5731 98.3322C19.741 98.3322 19.9033 98.3322 20.0711 98.3322C26.3549 98.377 31.4468 94.207 31.4468 89.0632Z" fill="#82CBFF"/>
<path d="M160.233 113.999H7.8951C7.11302 113.999 6.36298 113.688 5.80997 113.135C5.25696 112.582 4.94629 111.831 4.94629 111.049C4.94556 110.661 5.02127 110.277 5.16914 109.919C5.317 109.56 5.53409 109.234 5.80799 108.96C6.08189 108.685 6.40721 108.467 6.76534 108.319C7.12348 108.17 7.50738 108.094 7.8951 108.094H160.233C160.62 108.094 161.004 108.17 161.362 108.319C161.72 108.467 162.046 108.685 162.32 108.96C162.594 109.234 162.811 109.56 162.958 109.919C163.106 110.277 163.182 110.661 163.181 111.049C163.181 111.831 162.871 112.582 162.318 113.135C161.765 113.688 161.015 113.999 160.233 113.999Z" fill="#4E1E1E"/>
<path d="M163.965 109.651H4.16305C3.61635 109.651 3.075 109.543 2.56992 109.334C2.06483 109.125 1.60591 108.818 1.21934 108.431C0.832761 108.045 0.526111 107.586 0.316898 107.08C0.107685 106.575 0 106.033 0 105.487C0 104.94 0.107685 104.398 0.316898 103.893C0.526111 103.388 0.832761 102.929 1.21934 102.542C1.60591 102.155 2.06483 101.849 2.56992 101.639C3.075 101.43 3.61635 101.322 4.16305 101.322H163.965C165.069 101.322 166.128 101.761 166.909 102.542C167.689 103.323 168.128 104.382 168.128 105.487C168.128 106.591 167.689 107.65 166.909 108.431C166.128 109.212 165.069 109.651 163.965 109.651Z" fill="#963D3D"/>
<path d="M138.102 32.8622C144.073 32.8622 148.913 28.0206 148.913 22.0483C148.913 16.0759 144.073 11.2344 138.102 11.2344C132.132 11.2344 127.292 16.0759 127.292 22.0483C127.292 28.0206 132.132 32.8622 138.102 32.8622Z" fill="#B1DCFF"/>
<path d="M138.103 30.4781C142.757 30.4781 146.529 26.7041 146.529 22.0486C146.529 17.3931 142.757 13.6191 138.103 13.6191C133.449 13.6191 129.676 17.3931 129.676 22.0486C129.676 26.7041 133.449 30.4781 138.103 30.4781Z" fill="#82CBFF"/>
<path d="M138.103 22.0477V16.9766" stroke="white" stroke-opacity="0.66" stroke-width="0.98" stroke-linecap="round" stroke-linejoin="round"/>
<path d="M138.103 22.0469L141.202 25.1422" stroke="white" stroke-opacity="0.66" stroke-width="0.98" stroke-linecap="round" stroke-linejoin="round"/>
<path d="M138.103 29.5253V28.5234" stroke="white" stroke-opacity="0.66" stroke-width="0.68" stroke-linecap="round" stroke-linejoin="round"/>
<path d="M141.84 28.5238L141.342 27.6562" stroke="white" stroke-opacity="0.66" stroke-width="0.68" stroke-linecap="round" stroke-linejoin="round"/>
<path d="M144.576 25.787L143.709 25.2832" stroke="white" stroke-opacity="0.66" stroke-width="0.68" stroke-linecap="round" stroke-linejoin="round"/>
<path d="M145.583 22.0469H144.576" stroke="white" stroke-opacity="0.66" stroke-width="0.68" stroke-linecap="round" stroke-linejoin="round"/>
<path d="M144.577 18.3086L143.715 18.8068" stroke="white" stroke-opacity="0.66" stroke-width="0.68" stroke-linecap="round" stroke-linejoin="round"/>
<path d="M141.84 15.5723L141.342 16.4342" stroke="white" stroke-opacity="0.66" stroke-width="0.68" stroke-linecap="round" stroke-linejoin="round"/>
<path d="M138.103 15.572V14.5645" stroke="white" stroke-opacity="0.66" stroke-width="0.68" stroke-linecap="round" stroke-linejoin="round"/>
<path d="M134.868 16.4398L134.364 15.5723" stroke="white" stroke-opacity="0.66" stroke-width="0.68" stroke-linecap="round" stroke-linejoin="round"/>
<path d="M132.496 18.8068L131.629 18.3086" stroke="white" stroke-opacity="0.66" stroke-width="0.68" stroke-linecap="round" stroke-linejoin="round"/>
<path d="M131.629 22.0469H130.633" stroke="white" stroke-opacity="0.66" stroke-width="0.68" stroke-linecap="round" stroke-linejoin="round"/>
<path d="M132.496 25.2832L131.629 25.787" stroke="white" stroke-opacity="0.66" stroke-width="0.68" stroke-linecap="round" stroke-linejoin="round"/>
<path d="M134.868 27.6562L134.364 28.5238" stroke="white" stroke-opacity="0.66" stroke-width="0.68" stroke-linecap="round" stroke-linejoin="round"/>
<path d="M138.102 22.5364C138.371 22.5364 138.589 22.3184 138.589 22.0495C138.589 21.7805 138.371 21.5625 138.102 21.5625C137.833 21.5625 137.615 21.7805 137.615 22.0495C137.615 22.3184 137.833 22.5364 138.102 22.5364Z" fill="white" fill-opacity="0.66"/>
<path d="M44.8655 20.4135C43.7711 19.3187 42.4695 18.453 41.0369 17.867C39.6043 17.281 38.0693 16.9864 36.5216 17.0005C34.9739 17.0146 33.4446 17.337 32.0228 17.9489C30.6011 18.5609 29.3155 19.4501 28.2412 20.5646C26.2303 22.6704 25.076 25.4502 25.0036 28.3615C24.9312 31.2727 25.9458 34.1065 27.8495 36.3097C29.6476 38.3714 32.1136 39.7345 34.8154 40.1602C37.5172 40.5859 40.2827 40.0471 42.6273 38.6382C42.833 38.5149 43.0624 38.4363 43.3005 38.4073C43.5386 38.3784 43.78 38.3999 44.0093 38.4703L46.9526 39.349C47.0039 39.3644 47.0584 39.3656 47.1103 39.3525C47.1622 39.3395 47.2097 39.3125 47.2475 39.2747C47.2854 39.2368 47.3123 39.1893 47.3254 39.1374C47.3385 39.0854 47.3372 39.0309 47.3219 38.9796L46.4434 36.0354C46.3739 35.805 46.353 35.5627 46.3818 35.3238C46.4107 35.0849 46.4889 34.8545 46.6112 34.6473C47.9492 32.42 48.5041 29.809 48.1877 27.2298C47.8714 24.6506 46.702 22.2513 44.8655 20.4135Z" fill="#0DCB5C"/>
<path d="M30.0371 23.5547H43.2369" stroke="white" stroke-width="1.67" stroke-linecap="round" stroke-linejoin="round"/>
<path d="M40.0693 26.9512H43.2364" stroke="white" stroke-width="1.67" stroke-linecap="round" stroke-linejoin="round"/>
<path d="M30.0371 26.9512H36.9252" stroke="white" stroke-width="1.67" stroke-linecap="round" stroke-linejoin="round"/>
<path d="M36.0693 30.3477H43.2372" stroke="white" stroke-width="1.67" stroke-linecap="round" stroke-linejoin="round"/>
<path d="M30.0371 30.3477H33.4783" stroke="white" stroke-width="1.67" stroke-linecap="round" stroke-linejoin="round"/>
<path d="M40.0693 33.7461H43.2364" stroke="white" stroke-width="1.67" stroke-linecap="round" stroke-linejoin="round"/>
<path d="M30.0371 33.7461H36.7685" stroke="white" stroke-width="1.67" stroke-linecap="round" stroke-linejoin="round"/>
<path d="M84.1506 15.9417C84.1506 15.9417 82.97 10.7419 87.978 6.27524C92.9859 1.80863 100.713 2.21723 104.955 4.54569C110.449 7.56261 115.844 15.5499 110.914 26.9627C105.984 38.3755 128.579 33.6794 120.986 49.1223C113.393 64.5651 100.282 53.9079 95.5934 60.3168C90.9044 66.7256 74.5824 49.9283 88.5095 38.1908C102.437 26.4534 85.197 26.4925 84.1506 15.9417Z" fill="#4B4B4B"/>
<path d="M82.8749 50.0065C77.1563 52.4413 72.4225 66.9382 71.9805 97.8575H84.2906C84.2906 97.8575 91.7885 46.206 82.8749 50.0065Z" fill="#FF7E47"/>
<path d="M98.1614 45.3941C104.921 44.7281 115.933 45.8531 119.894 50.2246C120.767 51.1873 120.773 52.9952 120.303 55.4972C118.624 64.3297 111.093 81.8043 115.11 101.322H79.9312C79.9312 101.322 83.2885 86.075 81.4029 81.267C79.271 75.7705 77.4245 70.8001 79.5228 66.2047C84.3013 55.7435 80.0208 51.4168 83.0535 49.9055C87.7761 47.5022 92.8946 45.9738 98.1614 45.3941Z" fill="#FF7E47"/>
<path d="M112.682 71.2818C111.21 79.8176 101.323 80.8755 96.3652 79.2075C96.3652 79.2075 103.578 83.5734 108.782 81.1218C108.782 81.1218 110.102 85.2917 108.121 98.4117H114.59V98.3446C113.688 91.9082 113.752 85.3731 114.78 78.9557C114.913 77.6086 115.143 76.273 115.468 74.9592V74.9256C116.291 70.7389 117.315 66.916 118.232 63.58C118.622 61.3626 118.809 59.1145 118.792 56.8633C115.699 61.1498 113.611 66.0778 112.682 71.2818Z" fill="#EC652B"/>
<path d="M113.051 89.6133C113.051 89.6133 106.896 97.164 103.931 95.1154C100.014 92.4119 96.7572 92.4567 94.1609 93.9959C92.4938 95.0432 91.1904 96.5796 90.4287 98.3954H111.524L117.679 93.078L113.051 89.6133Z" fill="#FFD3C6"/>
<path d="M120.124 50.5372C120.124 50.5372 125.546 64.7038 130.196 76.2845C133.951 85.632 111.317 98.3769 111.317 98.3769L107.579 93.3842L120.611 78.9264L112.643 62.1347C112.643 62.1347 108.021 52.9608 115.038 49.7088C118.938 47.8617 120.124 50.5372 120.124 50.5372Z" fill="#FF7E47"/>
<path d="M102.789 31.5977C102.789 31.5977 101.939 42.3388 104.513 45.143C107.825 48.7533 102.011 56.5334 93.2768 62.4218C93.2768 62.4218 88.3919 56.998 92.2192 48.1655C96.0466 39.3331 92.3368 34.3403 92.3368 34.3403L102.789 31.5977Z" fill="#FFD3C6"/>
<path d="M104.513 26.9638C104.513 34.3242 99.3314 40.2797 94.9502 40.2797C90.5689 40.2797 85.1021 35.3877 84.3635 26.3313C83.7648 18.9989 87.7208 13.6367 93.6912 13.6367C99.6616 13.6367 104.513 19.6034 104.513 26.9638Z" fill="#FFD9CD"/>
<path d="M86.2661 11.9109C85.6506 12.2692 84.3189 13.1311 82.7633 14.1498C81.0847 15.2693 79.2661 17.2283 78.6506 19.3609C77.5819 23.0271 80.2789 27.6728 85.645 26.0328C91.0111 24.3928 93.5738 15.7842 97.9271 20.7602C103.332 26.9452 105.296 23.4973 105.296 23.4973C105.296 23.4973 104.211 15.7954 98.7329 12.3307C95.7953 10.4948 91.3524 8.96679 86.2661 11.9109Z" fill="#4B4B4B"/>
<path d="M108.139 24.3083C108.139 26.7095 106.723 28.6574 104.972 28.6574C103.22 28.6574 101.805 26.7095 101.805 24.3083C101.805 21.9071 103.22 19.9648 104.972 19.9648C106.723 19.9648 108.139 21.9071 108.139 24.3083Z" fill="#FF928E"/>
<path d="M94.9833 9.82255C90.1096 8.88221 85.4094 10.7237 82.7627 14.166C84.3134 13.1281 86.0541 12.4073 87.8845 12.0451C89.7148 11.683 91.5988 11.6866 93.4277 12.0559C99.9073 13.3041 104.49 18.5599 104.619 24.4034C104.743 24.0204 104.842 23.6296 104.915 23.2336C106.118 17.1102 101.659 11.1043 94.9833 9.82255Z" fill="#FF928E"/>
<path d="M104.266 25.7305C104.266 25.7305 105.15 35.5537 96.1191 36.4884" stroke="#FF928E" stroke-width="1.05" stroke-miterlimit="10"/>
<path d="M95.5323 37.4688H94.1111C93.8899 37.4688 93.6779 37.3809 93.5215 37.2245C93.3652 37.0681 93.2773 36.856 93.2773 36.6348C93.2773 36.4136 93.3652 36.2015 93.5215 36.045C93.6779 35.8886 93.8899 35.8008 94.1111 35.8008H95.5323C95.7534 35.8008 95.9655 35.8886 96.1219 36.045C96.2782 36.2015 96.3661 36.4136 96.3661 36.6348C96.3661 36.856 96.2782 37.0681 96.1219 37.2245C95.9655 37.3809 95.7534 37.4688 95.5323 37.4688Z" fill="#FF928E"/>
<path d="M116.621 98.3711H65.389C64.672 98.3711 64.0908 98.9525 64.0908 99.6697V100.017C64.0908 100.734 64.672 101.315 65.389 101.315H116.621C117.338 101.315 117.92 100.734 117.92 100.017V99.6697C117.92 98.9525 117.338 98.3711 116.621 98.3711Z" fill="#39306C"/>
<path d="M92.9357 101.322H45.6146C44.9872 101.322 44.3752 101.128 43.8616 100.768C43.348 100.407 42.9579 99.8974 42.7441 99.3074L31.7098 68.9814C31.5418 68.5194 31.4875 68.0237 31.5514 67.5362C31.6154 67.0487 31.7958 66.5838 32.0774 66.1808C32.359 65.7778 32.7334 65.4486 33.1691 65.2209C33.6047 64.9933 34.0888 64.874 34.5803 64.873H81.9014C82.5296 64.8731 83.1425 65.0665 83.6571 65.427C84.1716 65.7874 84.5628 66.2976 84.7775 66.8881L95.8286 97.214C95.9973 97.6778 96.0514 98.1756 95.9863 98.6648C95.9211 99.1541 95.7388 99.6203 95.4546 100.024C95.1705 100.427 94.7931 100.756 94.3545 100.982C93.9159 101.208 93.4291 101.325 92.9357 101.322Z" fill="#47417F"/>
<path d="M33.4893 65.0732C33.6683 82.9845 57.6674 97.4926 87.2452 97.4926C90.1437 97.4926 92.9918 97.3526 95.7671 97.084L84.7776 66.8588C84.5628 66.2683 84.1716 65.7581 83.6571 65.3977C83.1426 65.0372 82.5296 64.8438 81.9015 64.8438H34.5804C34.2056 64.8525 33.8358 64.9303 33.4893 65.0732Z" fill="#0461A5"/>
<path d="M66.6366 82.4924C66.6366 82.9633 66.5438 83.4296 66.3634 83.8646C66.1831 84.2995 65.9188 84.6947 65.5857 85.0274C65.2526 85.3601 64.8571 85.6239 64.422 85.8036C63.9869 85.9833 63.5206 86.0754 63.0499 86.0746C62.1001 86.0746 61.1892 85.6972 60.5176 85.0254C59.846 84.3536 59.4688 83.4425 59.4688 82.4924C59.4702 81.5428 59.848 80.6325 60.5193 79.961C61.1905 79.2895 62.1005 78.9116 63.0499 78.9102C64.0002 78.9102 64.9116 79.2874 65.5841 79.959C66.2566 80.6307 66.6351 81.5418 66.6366 82.4924Z" fill="#938BE2"/>
<path d="M53.4718 2.47752C54.2649 1.68324 55.2083 1.05507 56.2468 0.62973C57.2854 0.204394 58.3983 -0.00957314 59.5205 0.000328602C60.6427 0.0102303 61.7516 0.243801 62.7825 0.687397C63.8134 1.13099 64.7456 1.77572 65.5245 2.58387C66.9851 4.10944 67.8244 6.1251 67.8782 8.23676C67.932 10.3484 67.1965 12.4042 65.8155 14.0023C64.5106 15.4977 62.7209 16.4857 60.7604 16.7928C58.7999 17.0998 56.7939 16.7064 55.0945 15.6814C54.9448 15.5935 54.7785 15.5377 54.6061 15.5175C54.4337 15.4972 54.2589 15.5131 54.0929 15.5639L51.9555 16.1964C51.9186 16.2082 51.8793 16.2097 51.8417 16.2008C51.8041 16.1918 51.7696 16.1728 51.742 16.1458C51.7143 16.1187 51.6946 16.0846 51.6849 16.0472C51.6752 16.0098 51.6759 15.9704 51.6869 15.9333L52.3248 13.7952C52.3759 13.628 52.3914 13.4519 52.3702 13.2783C52.349 13.1048 52.2916 12.9376 52.2017 12.7877C51.2339 11.1735 50.8332 9.28206 51.0634 7.41398C51.2935 5.5459 52.1412 3.80836 53.4718 2.47752Z" fill="#FFAA76"/>
<path d="M54.753 9.81545C55.507 9.81545 56.1183 9.20399 56.1183 8.44972C56.1183 7.69544 55.507 7.08398 54.753 7.08398C53.999 7.08398 53.3877 7.69544 53.3877 8.44972C53.3877 9.20399 53.999 9.81545 54.753 9.81545Z" fill="white"/>
<path d="M59.4366 9.81545C60.1906 9.81545 60.8019 9.20399 60.8019 8.44972C60.8019 7.69544 60.1906 7.08398 59.4366 7.08398C58.6826 7.08398 58.0713 7.69544 58.0713 8.44972C58.0713 9.20399 58.6826 9.81545 59.4366 9.81545Z" fill="white"/>
<path d="M64.126 9.81545C64.8801 9.81545 65.4913 9.20399 65.4913 8.44972C65.4913 7.69544 64.8801 7.08398 64.126 7.08398C63.372 7.08398 62.7607 7.69544 62.7607 8.44972C62.7607 9.20399 63.372 9.81545 64.126 9.81545Z" fill="white"/>
</g>
<defs>
<clipPath id="clip0_10991_23264">
<rect width="168" height="114" fill="white"/>
</clipPath>
</defs>
</svg>
